<svg width="20" height="20" viewBox="0 0 20 20" fill="none" xmlns="http://www.w3.org/2000/svg">
<path d="M11.7699 9.64502L8.93987 6.82002C8.89339 6.77315 8.83809 6.73596 8.77716 6.71057C8.71623 6.68519 8.65087 6.67212 8.58487 6.67212C8.51886 6.67212 8.45351 6.68519 8.39258 6.71057C8.33165 6.73596 8.27635 6.77315 8.22987 6.82002C8.13674 6.9137 8.08447 7.04043 8.08447 7.17252C8.08447 7.30461 8.13674 7.43134 8.22987 7.52502L10.7049 10.025L8.22987 12.5C8.13674 12.5937 8.08447 12.7204 8.08447 12.8525C8.08447 12.9846 8.13674 13.1113 8.22987 13.205C8.27618 13.2523 8.3314 13.2898 8.39234 13.3156C8.45327 13.3413 8.51872 13.3547 8.58487 13.355C8.65102 13.3547 8.71646 13.3413 8.7774 13.3156C8.83834 13.2898 8.89356 13.2523 8.93987 13.205L11.7699 10.38C11.8206 10.3332 11.8611 10.2764 11.8888 10.2131C11.9165 10.1499 11.9308 10.0816 11.9308 10.0125C11.9308 9.94347 11.9165 9.87516 11.8888 9.81191C11.8611 9.74867 11.8206 9.69184 11.7699 9.64502Z" fill="#95B0B4"/>
</svg>
