<svg width="24" height="25" viewBox="0 0 24 25" fill="none" xmlns="http://www.w3.org/2000/svg">
<path d="M13.4099 12.2221L17.7099 7.93211C17.8982 7.74381 18.004 7.48841 18.004 7.22211C18.004 6.95581 17.8982 6.70041 17.7099 6.51211C17.5216 6.32381 17.2662 6.21802 16.9999 6.21802C16.7336 6.21802 16.4782 6.32381 16.2899 6.51211L11.9999 10.8121L7.70994 6.51211C7.52164 6.32381 7.26624 6.21802 6.99994 6.21802C6.73364 6.21802 6.47824 6.32381 6.28994 6.51211C6.10164 6.70041 5.99585 6.95581 5.99585 7.22211C5.99585 7.48841 6.10164 7.74381 6.28994 7.93211L10.5899 12.2221L6.28994 16.5121C6.19621 16.6051 6.12182 16.7157 6.07105 16.8375C6.02028 16.9594 5.99414 17.0901 5.99414 17.2221C5.99414 17.3541 6.02028 17.4848 6.07105 17.6067C6.12182 17.7285 6.19621 17.8391 6.28994 17.9321C6.3829 18.0258 6.4935 18.1002 6.61536 18.151C6.73722 18.2018 6.86793 18.2279 6.99994 18.2279C7.13195 18.2279 7.26266 18.2018 7.38452 18.151C7.50637 18.1002 7.61698 18.0258 7.70994 17.9321L11.9999 13.6321L16.2899 17.9321C16.3829 18.0258 16.4935 18.1002 16.6154 18.151C16.7372 18.2018 16.8679 18.2279 16.9999 18.2279C17.132 18.2279 17.2627 18.2018 17.3845 18.151C17.5064 18.1002 17.617 18.0258 17.7099 17.9321C17.8037 17.8391 17.8781 17.7285 17.9288 17.6067C17.9796 17.4848 18.0057 17.3541 18.0057 17.2221C18.0057 17.0901 17.9796 16.9594 17.9288 16.8375C17.8781 16.7157 17.8037 16.6051 17.7099 16.5121L13.4099 12.2221Z" fill="#95B0B4"/>
</svg>
