<svg width="24" height="24" viewBox="0 0 24 24" fill="none" xmlns="http://www.w3.org/2000/svg">
<path d="M16 19.9995H8C7.20435 19.9995 6.44129 19.6834 5.87868 19.1208C5.31607 18.5582 5 17.7952 5 16.9995V6.99951C5 6.7343 4.89464 6.47994 4.70711 6.29241C4.51957 6.10487 4.26522 5.99951 4 5.99951C3.73478 5.99951 3.48043 6.10487 3.29289 6.29241C3.10536 6.47994 3 6.7343 3 6.99951V16.9995C3 18.3256 3.52678 19.5974 4.46447 20.535C5.40215 21.4727 6.67392 21.9995 8 21.9995H16C16.2652 21.9995 16.5196 21.8942 16.7071 21.7066C16.8946 21.5191 17 21.2647 17 20.9995C17 20.7343 16.8946 20.4799 16.7071 20.2924C16.5196 20.1049 16.2652 19.9995 16 19.9995ZM21 8.93951C20.9896 8.84765 20.9695 8.75714 20.94 8.66951V8.57951C20.8919 8.47669 20.8278 8.38218 20.75 8.29951L14.75 2.29951C14.6673 2.22173 14.5728 2.15759 14.47 2.10951H14.38L14.06 1.99951H10C9.20435 1.99951 8.44129 2.31558 7.87868 2.87819C7.31607 3.4408 7 4.20386 7 4.99951V14.9995C7 15.7952 7.31607 16.5582 7.87868 17.1208C8.44129 17.6834 9.20435 17.9995 10 17.9995H18C18.7956 17.9995 19.5587 17.6834 20.1213 17.1208C20.6839 16.5582 21 15.7952 21 14.9995V8.99951C21 8.99951 21 8.99951 21 8.93951ZM15 5.40951L17.59 7.99951H16C15.7348 7.99951 15.4804 7.89415 15.2929 7.70662C15.1054 7.51908 15 7.26473 15 6.99951V5.40951ZM19 14.9995C19 15.2647 18.8946 15.5191 18.7071 15.7066C18.5196 15.8942 18.2652 15.9995 18 15.9995H10C9.73478 15.9995 9.48043 15.8942 9.29289 15.7066C9.10536 15.5191 9 15.2647 9 14.9995V4.99951C9 4.7343 9.10536 4.47994 9.29289 4.29241C9.48043 4.10487 9.73478 3.99951 10 3.99951H13V6.99951C13 7.79516 13.3161 8.55822 13.8787 9.12083C14.4413 9.68344 15.2044 9.99951 16 9.99951H19V14.9995Z" fill="#95B0B4"/>
</svg>
