<svg width="16" height="17" viewBox="0 0 16 17" fill="none" xmlns="http://www.w3.org/2000/svg">
<path d="M12.6668 1.83325H3.3335C2.80306 1.83325 2.29436 2.04397 1.91928 2.41904C1.54421 2.79411 1.3335 3.30282 1.3335 3.83325V4.61325C1.3334 4.88855 1.39014 5.1609 1.50016 5.41325V5.45325C1.59435 5.66723 1.72776 5.86169 1.8935 6.02659L6.00016 10.1066V14.4999C5.99994 14.6132 6.02859 14.7247 6.08341 14.8238C6.13823 14.923 6.21742 15.0065 6.3135 15.0666C6.41959 15.1323 6.54201 15.167 6.66683 15.1666C6.77119 15.166 6.87395 15.1408 6.96683 15.0933L9.6335 13.7599C9.74344 13.7045 9.83589 13.6198 9.90061 13.515C9.96533 13.4103 9.99979 13.2897 10.0002 13.1666V10.1066L14.0802 6.02659C14.2459 5.86169 14.3793 5.66723 14.4735 5.45325V5.41325C14.5927 5.16287 14.6585 4.89044 14.6668 4.61325V3.83325C14.6668 3.30282 14.4561 2.79411 14.081 2.41904C13.706 2.04397 13.1973 1.83325 12.6668 1.83325ZM8.86016 9.35992C8.79837 9.42221 8.74949 9.49609 8.71632 9.57731C8.68314 9.65854 8.66632 9.74551 8.66683 9.83325V12.7533L7.3335 13.4199V9.83325C7.334 9.74551 7.31719 9.65854 7.28401 9.57731C7.25083 9.49609 7.20195 9.42221 7.14016 9.35992L3.60683 5.83325H12.3935L8.86016 9.35992ZM13.3335 4.49992H2.66683V3.83325C2.66683 3.65644 2.73707 3.48687 2.86209 3.36185C2.98712 3.23682 3.15669 3.16659 3.3335 3.16659H12.6668C12.8436 3.16659 13.0132 3.23682 13.1382 3.36185C13.2633 3.48687 13.3335 3.65644 13.3335 3.83325V4.49992Z" fill="#95B0B4"/>
<path d="M8.86016 9.35992C8.79837 9.42221 8.74949 9.49609 8.71632 9.57731C8.68314 9.65854 8.66632 9.74551 8.66683 9.83325V12.7533L7.3335 13.4199V9.83325C7.334 9.74551 7.31719 9.65854 7.28401 9.57731C7.25083 9.49609 7.20195 9.42221 7.14016 9.35992L3.60683 5.83325H12.3935L8.86016 9.35992Z" fill="#95B0B4"/>
</svg>
