<svg width="200" height="60" viewBox="0 0 200 60" fill="none" xmlns="http://www.w3.org/2000/svg">
<path d="M34.8423 43.76V47.2001H21.2153C18.9565 47.2001 16.7902 46.294 15.193 44.6812C13.5958 43.0684 12.6985 40.8809 12.6985 38.6L12.6985 21.4H16.1052V38.6C16.1052 39.9686 16.6436 41.281 17.6019 42.2487C18.5603 43.2164 19.8601 43.76 21.2153 43.76H34.8423Z" fill="#89D2DC"/>
<path fill-rule="evenodd" clip-rule="evenodd" d="M43.2569 24.2724C43.3071 24.4232 43.3414 24.5788 43.3591 24.7368V35.16C43.3591 36.5286 42.8207 37.841 41.8624 38.8087C40.9041 39.7764 39.6043 40.32 38.249 40.32H24.6221C23.2668 40.32 21.967 39.7764 21.0087 38.8087C20.0504 37.841 19.512 36.5286 19.512 35.16V17.96C19.512 16.5915 20.0504 15.2791 21.0087 14.3114C21.967 13.3437 23.2668 12.8 24.6221 12.8H31.5377L32.0828 12.9892H32.2361C32.4113 13.0719 32.5723 13.1823 32.7131 13.316L42.9333 23.636C43.0658 23.7782 43.175 23.9408 43.2569 24.1176V24.2724ZM37.5506 23.12L33.1389 18.6652V21.4C33.1389 21.8562 33.3184 22.2937 33.6378 22.6163C33.9573 22.9388 34.3905 23.12 34.8423 23.12H37.5506ZM39.4535 36.3763C39.7729 36.0537 39.9524 35.6162 39.9524 35.16V26.56H34.8423C33.487 26.56 32.1872 26.0164 31.2289 25.0487C30.2706 24.081 29.7322 22.7686 29.7322 21.4V16.24H24.6221C24.1703 16.24 23.737 16.4213 23.4176 16.7438C23.0982 17.0664 22.9187 17.5039 22.9187 17.96V35.16C22.9187 35.6162 23.0982 36.0537 23.4176 36.3763C23.737 36.6988 24.1703 36.88 24.6221 36.88H38.249C38.7008 36.88 39.134 36.6988 39.4535 36.3763Z" fill="#89D2DC"/>
<path d="M158.07 14.5509H162.262V39.6212H158.07V14.5509Z" fill="#89D2DC"/>
<path d="M80.413 35.2583C81.5953 33.7172 82.2939 31.9482 82.5088 29.9512H78.2204C77.9839 31.2536 77.468 32.3823 76.6727 33.3373C75.8988 34.2707 74.8885 34.987 73.6417 35.4862C72.395 35.9855 70.9547 36.2351 69.321 36.2351C67.4294 36.2351 65.7849 35.8769 64.3877 35.1606C63.0119 34.4443 61.9479 33.4242 61.1955 32.1001C60.4432 30.776 60.067 29.2132 60.067 27.4116C60.067 25.61 60.4432 24.0472 61.1955 22.7231C61.9479 21.3991 63.0119 20.3789 64.3877 19.6626C65.7849 18.9463 67.4294 18.5882 69.321 18.5882C70.9547 18.5882 72.395 18.8486 73.6417 19.3696C74.8885 19.8688 75.8988 20.5851 76.6727 21.5185C77.468 22.4518 77.9839 23.5697 78.2204 24.872H82.5088C82.2939 22.8534 81.5953 21.0843 80.413 19.5649C79.2522 18.0455 77.726 16.8625 75.8343 16.016C73.9427 15.1695 71.7823 14.7462 69.3533 14.7462C66.6448 14.7462 64.2695 15.278 62.2273 16.3416C60.1852 17.4052 58.5945 18.892 57.4552 20.8022C56.3159 22.6906 55.7463 24.8937 55.7463 27.4116C55.7463 29.9295 56.3159 32.1435 57.4552 34.0536C58.5945 35.942 60.1852 37.4181 62.2273 38.4816C64.2695 39.5452 66.6448 40.077 69.3533 40.077C71.7823 40.077 73.9427 39.6538 75.8343 38.8072C77.726 37.9607 79.2522 36.7777 80.413 35.2583Z" fill="#89D2DC"/>
<path fill-rule="evenodd" clip-rule="evenodd" d="M90.1864 38.8723C91.8631 39.6755 93.8085 40.077 96.0226 40.077C98.2367 40.077 100.171 39.6755 101.827 38.8723C103.503 38.0475 104.804 36.908 105.728 35.4537C106.674 33.9994 107.147 32.3172 107.147 30.407C107.147 28.4752 106.674 26.793 105.728 25.3604C104.804 23.9061 103.503 22.7774 101.827 21.9743C100.171 21.1495 98.2367 20.7371 96.0226 20.7371C93.8085 20.7371 91.8631 21.1495 90.1864 21.9743C88.5312 22.7774 87.2307 23.9061 86.2849 25.3604C85.3606 26.793 84.8984 28.4752 84.8984 30.407C84.8984 32.3172 85.3606 33.9994 86.2849 35.4537C87.2307 36.908 88.5312 38.0475 90.1864 38.8723ZM99.6662 35.9746C98.6559 36.4955 97.4413 36.756 96.0226 36.756C94.6254 36.756 93.4108 36.4955 92.379 35.9746C91.3472 35.4537 90.5519 34.7265 89.993 33.7932C89.4341 32.8381 89.1546 31.7094 89.1546 30.407C89.1546 29.1047 89.4341 27.9868 89.993 27.0535C90.5519 26.0984 91.3472 25.3604 92.379 24.8395C93.4108 24.3185 94.6254 24.0581 96.0226 24.0581C97.4413 24.0581 98.6559 24.3185 99.6662 24.8395C100.698 25.3604 101.493 26.0984 102.052 27.0535C102.611 27.9868 102.891 29.1047 102.891 30.407C102.891 31.7094 102.611 32.8381 102.052 33.7932C101.493 34.7265 100.698 35.4537 99.6662 35.9746Z" fill="#89D2DC"/>
<path fill-rule="evenodd" clip-rule="evenodd" d="M110.554 21.1929H114.746V26.0106C114.879 25.7768 115.019 25.5492 115.165 25.3279C116.111 23.8736 117.272 22.7448 118.647 21.9417C120.045 21.1386 121.592 20.7371 123.29 20.7371C125.075 20.7371 126.655 21.1495 128.03 21.9743C129.406 22.7774 130.481 23.9061 131.255 25.3604C132.029 26.793 132.416 28.4752 132.416 30.407C132.416 32.3172 132.029 33.9994 131.255 35.4537C130.481 36.908 129.406 38.0475 128.03 38.8723C126.655 39.6755 125.075 40.077 123.29 40.077C121.592 40.077 120.055 39.6755 118.68 38.8723C117.304 38.0692 116.132 36.9405 115.165 35.4862C115.019 35.2615 114.879 35.0311 114.746 34.795V44.9934H110.554V21.1929ZM128.159 30.407C128.159 29.1698 127.901 28.0845 127.385 27.1512C126.891 26.1961 126.203 25.4581 125.322 24.9371C124.441 24.3945 123.43 24.1232 122.291 24.1232C121.152 24.1232 120.077 24.3945 119.066 24.9371C118.078 25.4581 117.207 26.1961 116.455 27.1512C115.702 28.0845 115.09 29.1698 114.617 30.407C115.09 31.6443 115.702 32.7404 116.455 33.6955C117.207 34.6288 118.078 35.3668 119.066 35.9095C120.077 36.4304 121.152 36.6909 122.291 36.6909C123.43 36.6909 124.441 36.4304 125.322 35.9095C126.203 35.3668 126.891 34.6288 127.385 33.6955C127.901 32.7404 128.159 31.6443 128.159 30.407Z" fill="#89D2DC"/>
<path d="M136.471 45.026C137.353 45.3082 138.331 45.4492 139.406 45.4492C140.352 45.4492 141.233 45.2973 142.05 44.9934C142.888 44.6895 143.651 44.2011 144.339 43.5283C145.048 42.8771 145.661 42.0088 146.177 40.9236L155.624 21.1929H151.175L144.416 36.2343L137.729 21.1929H133.118L141.502 39.0351H143.157L142.953 39.491C142.501 40.4894 141.931 41.184 141.244 41.5747C140.556 41.9871 139.771 42.1933 138.89 42.1933C137.965 42.1933 137.127 42.074 136.375 41.8352C135.644 41.5964 134.87 41.2166 134.053 40.6956V43.919C134.806 44.3965 135.612 44.7655 136.471 45.026Z" fill="#89D2DC"/>
<path d="M168.149 45.026C169.03 45.3082 170.008 45.4492 171.083 45.4492C172.029 45.4492 172.91 45.2973 173.727 44.9934C174.565 44.6895 175.328 44.2011 176.016 43.5283C176.726 42.8771 177.338 42.0088 177.854 40.9236L187.302 21.1929H182.852L176.093 36.2343L169.406 21.1929H164.795L173.179 39.0351H174.835L174.63 39.491C174.178 40.4894 173.609 41.184 172.921 41.5747C172.233 41.9871 171.448 42.1933 170.567 42.1933C169.643 42.1933 168.804 42.074 168.052 41.8352C167.321 41.5964 166.547 41.2166 165.73 40.6956V43.919C166.483 44.3965 167.289 44.7655 168.149 45.026Z" fill="#89D2DC"/>
</svg>
